<svg xmlns="http://www.w3.org/2000/svg" xmlns:xlink="http://www.w3.org/1999/xlink" version="1.1" id="svg2" x="0px" y="0px" viewBox="0 0 345.2 98" style="enable-background:new 0 0 345.2 98;" fill="white" xml:space="preserve">
<path d="M92.1,10.4h-2l0.7-6h2c2.1,0,3.3,1,3.3,2.8C96.1,8.8,95,10.3,92.1,10.4 M96.6,13.5c3-0.8,4.4-3.4,4.4-6.2  c0-3-1.8-7.2-7.2-7.2h-7.3L83.6,24h4.8l1.1-9.5h0.8c2.1,0,2.4,0.4,4.2,4.6l2,4.9h5.2l-3.3-7.7C98.1,15,97.6,14.1,96.6,13.5 M172,0  v0.2l-1.8,14.2c-0.5,3.9-2.7,5.1-5,5.1c-1.6,0-4.5-0.6-4.5-4.7c0-0.4,0-0.8,0.1-1.3L162.5,0h-4.8L156,13.6c-0.1,0.6-0.1,1.3-0.1,1.9  c0,5.1,2.9,8.8,9.3,8.8h0.1c3.9,0,8.7-1.7,9.6-9.3l1.9-15L172,0L172,0z M146.9,23.9h4.8l3-23.9h-4.8L146.9,23.9z M139.3,0l-0.1,0.1  l-6.7,14.3L129.3,0h-5.1l-6,21l0.2-1.2v-0.2h-10.7l0.7-5.8h7.5l0.5-4.3h-7.5l0.7-5.2h8.5l0.5-4.3h-13.3l-3,23.9h19.8L126.7,8  l3.5,15.9h2.3L140,8.4l0.6,15.5h4.6l-1-23.9H139.3L139.3,0z M75,11h-1.6l0.8-6.9h0.9c2.7,0,3.8,1.4,3.8,3.3C79,9.4,77.9,11,75,11   M76.9,0H70l-3,23.9h4.8l1.1-8.9h3.3c3.6,0,7.7-1.8,7.7-7.8C83.9,2.4,80.7,0,76.9,0 M202.1,0h-4.9l-6.8,14.4L187.1,0H182l-6.8,23.9  h4.8L184.5,8l3.5,15.9h2.4l7.5-15.4l0.6,15.4h4.6L202.1,0L202.1,0z"/>
<path d="M83.3,96.3H67.2V30.9h16.1L83.3,96.3L83.3,96.3z"/>
<path d="M109.1,64.7v31.6H93V29.1l39.5,33.3V30.9h16.1V98L109.1,64.7L109.1,64.7z"/>
<path d="M204.8,96.3h-30.2c-11.2,0-16.8-7.4-16.8-18.1V30.9h45.7V45h-29.6v11.3h26.8v14.1h-26.8v5.3c0,5,1.5,6.6,5.9,6.6h24.9  L204.8,96.3L204.8,96.3z"/>
<path d="M244.7,83.3l16.1-16.5v29.6h16V29.1l-32.2,32.5l-32.2-32.5v67.2h16V66.8C228.5,66.8,244.7,83.3,244.7,83.3z"/>
<path d="M304.8,70.1c2.4-8.6,5.2-17.6,8.1-25.8c2.9,8.2,5.7,17.2,8.1,25.8H304.8z M327.4,96.3h17.8c-3.6-16-12.5-46.6-21.3-65.5h-21  c-8.8,18.9-17.7,49.5-21.3,65.5h16.8c0.7-3.3,1.5-7.2,2.6-11.7h23.8C325.9,89.1,326.7,93,327.4,96.3"/>
<path d="M0,63.5c0,18.8,14.5,34.1,34.9,34.1c11.4,0,20.6-4.9,27-11.8l-9.8-11.3c-3.9,4.4-9.9,8.3-17.2,8.3  c-9.9,0-18.1-7.9-18.1-19.3c0-11.5,8.2-19.3,18.1-19.3c7.4,0,13.3,3.9,17.2,8.3l9.8-11.3c-6.4-6.9-15.6-11.8-27-11.8  C14.5,29.4,0,44.8,0,63.5"/>
</svg>